<?xml version="1.0" encoding="UTF-8"?><svg id="Layer_2" xmlns="http://www.w3.org/2000/svg" viewBox="0 0 157.57 147.36"><defs><style>.cls-1{fill:#5f9340;}</style></defs><g id="Layer_1-2"><path class="cls-1" d="m157.23,89.7c-.73-1.88-17.99-46.21-23.62-55.79-11.4-19.41-31.58-21-54.82-21s-43.42,1.58-54.82,21C18.34,43.49,1.08,87.82.34,89.7c-.5,1.3-.45,2.74.15,4,.6,1.25,1.69,2.21,3.01,2.63l25.34,8.14c2.64.85,5.46-.6,6.33-3.22l3.44-10.42c.87-2.65-.56-5.5-3.21-6.37-2.64-.87-5.5.57-6.37,3.21l-1.87,5.67-15.47-4.97c5.9-14.98,17.12-42.8,20.96-49.35,4.78-8.13,11.43-12.26,21.31-14.27,2.51,11.54,6.96,23.59,13.26,35.88.89,1.74,2.66,2.74,4.49,2.74.77,0,1.56-.18,2.29-.56,2.48-1.27,3.46-4.31,2.19-6.79-5.75-11.22-9.83-22.15-12.19-32.59,4.41-.32,9.31-.44,14.78-.44s10.37.12,14.78.44c-7.53,33.19-30.42,61.26-30.67,61.55-1.77,2.15-1.47,5.33.68,7.1.94.77,2.08,1.15,3.21,1.15,1.45,0,2.89-.63,3.89-1.83,1.07-1.29,25.11-30.7,32.93-66.67,9.88,2.01,16.53,6.14,21.3,14.27,3.85,6.55,15.07,34.37,20.96,49.35l-15.47,4.97-1.87-5.67c-.87-2.65-3.73-4.07-6.37-3.21-2.65.87-4.08,3.72-3.21,6.37l3.44,10.42c.7,2.12,2.67,3.47,4.79,3.47.51,0,1.03-.08,1.54-.24l25.34-8.14c1.32-.42,2.41-1.38,3.01-2.63s.65-2.7.15-4Z"/><path class="cls-1" d="m65.95,11.09c6.95-1.32,18.71-1.32,25.66,0,.32.06.64.09.95.09,2.37,0,4.49-1.68,4.95-4.1.52-2.74-1.28-5.38-4.01-5.9-8.26-1.57-21.18-1.57-29.44,0-2.73.52-4.53,3.16-4.01,5.9s3.14,4.53,5.9,4.01Z"/><path class="cls-1" d="m117.99,85.47c1.31-9.35,2.4-28.68,2.45-29.49.16-2.78-1.97-5.16-4.75-5.32-2.76-.16-5.16,1.97-5.31,4.75-.01.2-1.12,19.72-2.37,28.66-.5,3.58-2.6,15.26-8.55,15.26h-41.33c-5.95,0-8.05-11.68-8.55-15.26-1.25-8.94-2.35-28.47-2.37-28.67-.15-2.78-2.57-4.92-5.31-4.75-2.78.16-4.91,2.54-4.75,5.32.04.82,1.14,20.14,2.45,29.49.96,6.83,2.85,12.35,5.51,16.37-10.41,18.92-7.79,40.2-7.67,41.13.33,2.51,2.47,4.39,5,4.39h72.73c2.53,0,4.67-1.88,5-4.39.12-.93,2.74-22.21-7.67-41.13,2.66-4.01,4.56-9.54,5.51-16.37Zm-65.01,23.04c1.46.55,3.01.85,4.64.9-2.3,6.96-5.54,18.07-6.46,27.86h-4c-.13-6.19.48-17.93,5.83-28.76Zm57.43,28.76h-49.12c1.11-10.14,5.01-22.19,6.99-27.85h10.78c-1.53,4.23-3.33,10.26-4.81,18.2-.51,2.74,1.3,5.37,4.04,5.88.31.06.62.08.93.08,2.38,0,4.5-1.7,4.95-4.12.79-4.26,1.68-7.9,2.55-10.94.87,3.03,1.76,6.67,2.55,10.94.45,2.43,2.57,4.12,4.95,4.12.3,0,.61-.03.93-.09,2.74-.51,4.55-3.14,4.04-5.88-1.47-7.93-3.27-13.97-4.8-18.2h5.07c1.82,0,3.53-.31,5.13-.92,5.35,10.83,5.96,22.58,5.83,28.76Z"/></g></svg>