<?xml version="1.0" encoding="UTF-8"?><svg id="Layer_2" xmlns="http://www.w3.org/2000/svg" viewBox="0 0 166.28 139.65"><defs><style>.cls-1{fill:#5f9340;}</style></defs><g id="Layer_1-2"><path class="cls-1" d="m68.53,19.17c-5.38,0-9.74,4.36-9.74,9.74v35.72c0,5.38,4.36,9.74,9.74,9.74s9.74-4.36,9.74-9.74V28.91c0-5.38-4.36-9.74-9.74-9.74Z"/><path class="cls-1" d="m97.75,74.38c5.38,0,9.74-4.36,9.74-9.74V28.91c0-5.38-4.36-9.74-9.74-9.74s-9.74,4.36-9.74,9.74v35.72c0,5.38,4.36,9.74,9.74,9.74Z"/><path class="cls-1" d="m113.64,75.9c-3.53,4.97-9.34,8.22-15.89,8.22-2.31,0-4.52-.41-6.58-1.15,5.2,13.55,7.88,27.97,7.88,42.55v9.24c0,4.01,4.58,6.31,7.79,3.9l1.95-1.46c2.89-2.17,6.86-2.17,9.74,0l1.95,1.46c3.21,2.41,7.79.12,7.79-3.9v-20.3c0-8.75-2.02-17.53-5.84-25.4-2.31-4.76-5.29-9.2-8.81-13.17h0Z"/><path class="cls-1" d="m52.64,75.9c-3.51,3.97-6.5,8.41-8.81,13.17-3.82,7.87-5.84,16.65-5.84,25.4v20.3c0,4.01,4.58,6.31,7.79,3.9l1.95-1.46c2.89-2.17,6.86-2.17,9.74,0l1.95,1.46c3.21,2.41,7.79.12,7.79-3.9v-9.24c0-14.58,2.68-29,7.88-42.55-2.06.74-4.27,1.15-6.58,1.15-6.55,0-12.35-3.25-15.89-8.22h0Z"/><path class="cls-1" d="m158.27,1.15c-.22.18-17.98,15-41.03,24.79v35.04c17.1-1.11,35.75-4.78,47.3-14.47,1.1-.93,1.74-2.29,1.74-3.73V4.88c0-4.14-4.84-6.39-8.01-3.73Z"/><path class="cls-1" d="m49.04,25.94C26.03,16.16,8.22,1.33,8.01,1.15,4.84-1.51,0,.74,0,4.88v37.9c0,1.44.64,2.81,1.74,3.73,11.55,9.69,30.2,13.37,47.3,14.47V25.94Z"/></g></svg>